<?xml version="1.0" standalone="no"?>
<!DOCTYPE svg PUBLIC "-//W3C//DTD SVG 20010904//EN"
 "http://www.w3.org/TR/2001/REC-SVG-20010904/DTD/svg10.dtd">
<svg version="1.0" xmlns="http://www.w3.org/2000/svg"
 width="261.000000pt" height="70.000000pt" viewBox="0 0 261.000000 70.000000"
 preserveAspectRatio="xMidYMid meet">

<g transform="translate(0.000000,70.000000) scale(0.100000,-0.100000)"
fill="#000000" stroke="none">
<path d="M411 581 c-7 -5 -11 -17 -7 -27 4 -13 -11 -42 -47 -91 l-53 -73 -57
42 c-31 23 -57 49 -57 59 0 18 -18 29 -37 22 -18 -6 -16 -30 3 -41 11 -6 24
-48 40 -128 13 -65 28 -122 32 -126 5 -5 98 -7 207 -6 l199 3 27 124 c18 83
32 127 43 133 21 12 21 34 0 42 -20 8 -45 -11 -38 -28 2 -6 -22 -31 -55 -54
l-60 -42 -48 68 c-26 37 -48 76 -48 87 -2 39 -18 52 -44 36z m-26 -240 c3 -5
0 -13 -6 -16 -5 -4 -8 -14 -4 -22 4 -13 3 -13 -9 -4 -11 9 -15 9 -19 -1 -4 -9
-6 -7 -6 4 -2 39 27 65 44 39z m65 -2 c0 -6 -7 -8 -16 -5 -14 5 -15 4 -4 -9
18 -22 -4 -46 -22 -26 -11 12 -10 13 6 7 16 -5 17 -4 7 8 -7 8 -10 20 -6 26 8
13 35 13 35 -1z m60 -21 c0 -25 -3 -29 -10 -18 -9 13 -11 13 -20 0 -15 -23
-13 6 2 30 18 29 28 25 28 -12z"/>
<path d="M360 329 c0 -5 5 -7 10 -4 6 3 10 8 10 11 0 2 -4 4 -10 4 -5 0 -10
-5 -10 -11z"/>
<path d="M865 538 c-13 -13 -16 -21 -8 -29 7 -7 5 -36 -9 -96 -10 -48 -17 -92
-14 -100 11 -26 25 -12 32 32 3 25 10 45 14 45 4 0 30 -20 58 -45 27 -25 55
-45 61 -45 22 0 10 23 -30 59 l-41 36 51 32 c55 35 66 66 35 97 -30 30 -122
39 -149 14z m134 -17 c23 -15 3 -47 -48 -75 -27 -14 -52 -26 -56 -26 -11 0 4
81 17 97 12 15 66 17 87 4z"/>
<path d="M1590 551 c0 -6 -15 -7 -33 -4 -28 4 -40 0 -71 -27 -48 -43 -66 -79
-66 -133 0 -111 118 -117 174 -8 9 17 24 31 32 31 9 0 14 6 12 13 -3 6 -14 12
-26 11 -103 -3 -113 -5 -110 -16 3 -7 17 -14 31 -16 35 -4 34 -14 -4 -52 -39
-38 -82 -39 -87 -1 -6 38 26 107 64 141 43 38 74 40 74 5 0 -39 27 -30 33 12
4 20 4 40 1 45 -7 11 -24 10 -24 -1z"/>
<path d="M1250 543 c-88 -13 -93 -14 -81 -26 17 -17 13 -45 -9 -67 -11 -11
-17 -26 -14 -35 11 -27 -5 -85 -24 -85 -16 -1 -16 -1 0 -13 12 -10 35 -11 85
-6 37 5 74 8 82 8 10 1 11 4 2 14 -7 10 -27 12 -65 9 l-54 -4 11 41 c11 40 11
40 69 47 49 6 56 9 46 21 -9 11 -23 13 -55 8 l-42 -6 10 29 c9 26 17 31 70 41
88 18 61 39 -31 24z"/>
<path d="M1840 543 c-88 -13 -93 -14 -81 -26 17 -17 13 -45 -10 -68 -14 -14
-18 -24 -11 -31 15 -15 -7 -88 -27 -88 -15 -1 -14 -2 1 -13 12 -10 35 -11 85
-6 37 5 75 8 83 8 11 1 11 4 2 13 -7 7 -33 11 -62 9 -54 -3 -58 3 -44 56 5 19
16 23 65 29 32 4 59 10 59 15 0 13 -39 21 -71 14 -29 -7 -30 -5 -27 21 3 29 0
28 106 50 13 2 20 9 17 14 -6 10 -36 11 -85 3z"/>
<path d="M2046 538 c-19 -59 -48 -208 -43 -222 12 -31 22 -15 40 65 10 44 22
78 25 74 4 -4 18 -39 32 -78 17 -48 31 -73 43 -75 12 -2 17 3 17 18 0 12 12
65 26 117 19 71 23 98 14 107 -15 15 -22 1 -44 -86 -11 -40 -22 -77 -26 -81
-7 -8 -45 100 -52 147 -4 23 -26 33 -32 14z"/>
<path d="M2374 539 c-10 -4 -32 -8 -47 -8 -41 -1 -23 -21 19 -21 41 0 41 -1
13 -110 -14 -58 -17 -86 -10 -93 17 -17 27 2 46 93 23 112 28 120 72 120 26 0
34 3 26 11 -13 13 -93 18 -119 8z"/>
<path d="M1045 190 c-8 -14 3 -30 21 -30 8 0 14 -5 14 -11 0 -6 -9 -9 -20 -6
-11 3 -18 1 -14 -4 7 -13 31 -11 40 3 4 6 0 16 -9 23 -21 15 -22 29 -1 21 8
-3 12 -2 9 4 -8 13 -32 13 -40 0z"/>
<path d="M1110 165 c0 -32 2 -35 28 -34 23 2 24 2 5 6 -13 2 -23 9 -23 14 0 5
10 9 23 10 21 1 21 1 -3 9 l-25 7 25 11 25 11 -27 0 c-25 1 -28 -2 -28 -34z"/>
<path d="M1190 185 c-22 -27 17 -72 41 -48 6 6 2 9 -13 9 -17 -1 -23 5 -23 19
0 14 6 20 22 19 12 0 20 3 17 8 -8 13 -30 9 -44 -7z"/>
<path d="M1263 170 c2 -30 5 -35 27 -35 22 0 25 5 27 35 1 34 1 34 -5 5 -4
-17 -14 -30 -22 -30 -8 0 -18 13 -22 30 -6 29 -6 29 -5 -5z"/>
<path d="M1340 163 c0 -27 3 -34 9 -24 8 13 12 13 27 0 16 -12 17 -12 11 3 -3
10 -2 20 4 24 14 9 -9 34 -32 34 -15 0 -19 -7 -19 -37z m40 11 c0 -9 -5 -14
-12 -12 -18 6 -21 28 -4 28 9 0 16 -7 16 -16z"/>
<path d="M1423 165 c0 -22 2 -30 4 -17 2 12 2 30 0 40 -3 9 -5 -1 -4 -23z"/>
<path d="M1457 192 c6 -4 13 -21 16 -37 l4 -30 2 32 c0 17 7 34 14 36 6 3 -1
6 -18 6 -16 0 -25 -3 -18 -7z"/>
<path d="M1642 175 c-15 -33 -15 -36 3 -29 8 4 22 1 30 -6 8 -7 15 -9 15 -6 0
9 -29 66 -34 66 -1 0 -8 -11 -14 -25z m23 -5 c3 -5 1 -10 -4 -10 -6 0 -11 5
-11 10 0 6 2 10 4 10 3 0 8 -4 11 -10z"/>
<path d="M1797 193 c-13 -12 -7 -33 8 -33 21 0 19 -18 -2 -23 -14 -4 -12 -5 5
-6 25 -1 31 26 7 35 -8 4 -15 11 -15 16 0 6 7 7 16 4 8 -3 12 -2 9 4 -7 12
-19 13 -28 3z"/>
<path d="M1857 192 c6 -4 13 -21 16 -37 l4 -30 2 32 c0 17 7 34 14 36 6 3 -1
6 -18 6 -16 0 -25 -3 -18 -7z"/>
<path d="M1920 163 c0 -27 3 -34 9 -24 8 13 12 13 27 0 16 -12 17 -12 11 3 -3
10 -2 20 4 24 14 9 -9 34 -32 34 -15 0 -19 -7 -19 -37z m41 12 c-1 -15 -24
-12 -29 3 -3 9 2 13 12 10 10 -1 17 -7 17 -13z"/>
<path d="M2006 163 c-16 -33 -16 -35 -1 -23 13 11 21 11 36 2 10 -7 19 -10 19
-7 0 8 -30 65 -33 65 -2 0 -11 -17 -21 -37z m29 7 c3 -5 1 -10 -4 -10 -6 0
-11 5 -11 10 0 6 2 10 4 10 3 0 8 -4 11 -10z"/>
<path d="M2082 168 c-2 -35 0 -38 26 -37 22 1 23 2 5 6 -16 3 -23 13 -26 36
-4 31 -4 31 -5 -5z"/>
<path d="M2190 170 c-7 -17 -10 -33 -6 -37 3 -3 6 -1 6 5 0 16 37 15 44 0 3
-7 3 -2 0 12 -3 14 -12 31 -19 38 -10 11 -14 8 -25 -18z"/>
<path d="M1533 161 c6 -17 14 -26 16 -19 2 7 8 22 14 33 9 17 8 18 -5 8 -11
-10 -17 -10 -26 -1 -8 8 -8 3 1 -21z"/>
<path d="M1711 167 c-1 -32 21 -46 44 -27 17 14 20 50 5 50 -5 0 -10 -11 -10
-25 0 -34 -28 -32 -33 3 l-4 27 -2 -28z"/>
<path d="M2152 165 c0 -16 2 -22 5 -12 2 9 2 23 0 30 -3 6 -5 -1 -5 -18z"/>
<path d="M230 170 c0 -6 73 -10 200 -10 127 0 200 4 200 10 0 6 -73 10 -200
10 -127 0 -200 -4 -200 -10z"/>
</g>
</svg>
